<svg xmlns="http://www.w3.org/2000/svg" viewBox="0 0 400 400">
  <defs>
    <linearGradient id="bg" x1="0%" y1="0%" x2="100%" y2="100%"><stop offset="0%" style="stop-color:#fce4e4"/><stop offset="100%" style="stop-color:#f8d7d7"/></linearGradient>
  </defs>
  <rect width="400" height="400" rx="20" fill="url(#bg)"/>
  <!-- Foco LED H7 -->
  <rect x="175" y="100" width="50" height="80" rx="8" fill="#555" stroke="#444" stroke-width="2"/>
  <!-- Disipador/ventilador -->
  <rect x="165" y="180" width="70" height="60" rx="5" fill="#444" stroke="#333" stroke-width="2"/>
  <circle cx="200" cy="210" r="20" fill="#555" stroke="#444" stroke-width="1"/>
  <circle cx="200" cy="210" r="12" fill="#666"/>
  <!-- Aspas ventilador -->
  <line x1="188" y1="198" x2="212" y2="222" stroke="#777" stroke-width="2"/>
  <line x1="212" y1="198" x2="188" y2="222" stroke="#777" stroke-width="2"/>
  <line x1="200" y1="195" x2="200" y2="225" stroke="#777" stroke-width="2"/>
  <line x1="185" y1="210" x2="215" y2="210" stroke="#777" stroke-width="2"/>
  <!-- LEDs -->
  <rect x="185" y="105" width="30" height="15" rx="3" fill="#ffffcc" stroke="#ffcc00" stroke-width="1"/>
  <rect x="185" y="125" width="30" height="15" rx="3" fill="#ffffcc" stroke="#ffcc00" stroke-width="1"/>
  <!-- Conector -->
  <rect x="188" y="240" width="24" height="30" rx="3" fill="#666"/>
  <rect x="192" y="270" width="16" height="15" rx="2" fill="#777"/>
  <!-- Segundo foco -->
  <rect x="270" y="140" width="40" height="65" rx="6" fill="#555" stroke="#444" stroke-width="1.5"/>
  <rect x="262" y="205" width="56" height="50" rx="4" fill="#444" stroke="#333" stroke-width="1.5"/>
  <rect x="280" y="145" width="20" height="12" rx="2" fill="#ffffcc"/>
  <rect x="280" y="162" width="20" height="12" rx="2" fill="#ffffcc"/>
  <!-- Texto -->
  <text x="200" y="320" text-anchor="middle" fill="#888" font-family="Arial" font-size="12">Kit LED H7 6000K</text>
</svg>
