<svg xmlns="http://www.w3.org/2000/svg" viewBox="0 0 400 400">
  <defs>
    <linearGradient id="bg" x1="0%" y1="0%" x2="100%" y2="100%"><stop offset="0%" style="stop-color:#fce4e4"/><stop offset="100%" style="stop-color:#f8d7d7"/></linearGradient>
  </defs>
  <rect width="400" height="400" rx="20" fill="url(#bg)"/>
  <!-- Sensor de temperatura / Coolant temp sensor -->
  <!-- Conector superior -->
  <rect x="178" y="90" width="44" height="30" rx="5" fill="#444" stroke="#333" stroke-width="1.5"/>
  <!-- Pines -->
  <rect x="190" y="80" width="6" height="15" rx="1" fill="#888"/>
  <rect x="204" y="80" width="6" height="15" rx="1" fill="#888"/>
  <!-- Cuerpo -->
  <rect x="182" y="120" width="36" height="50" rx="5" fill="#555" stroke="#444" stroke-width="2"/>
  <!-- Hexágono -->
  <polygon points="200,170 218,178 218,198 200,206 182,198 182,178" fill="#aaa" stroke="#888" stroke-width="2"/>
  <!-- Roscado -->
  <rect x="188" y="206" width="24" height="40" rx="2" fill="#999" stroke="#888" stroke-width="1.5"/>
  <line x1="188" y1="214" x2="212" y2="214" stroke="#888" stroke-width="0.8"/>
  <line x1="188" y1="220" x2="212" y2="220" stroke="#888" stroke-width="0.8"/>
  <line x1="188" y1="226" x2="212" y2="226" stroke="#888" stroke-width="0.8"/>
  <line x1="188" y1="232" x2="212" y2="232" stroke="#888" stroke-width="0.8"/>
  <line x1="188" y1="238" x2="212" y2="238" stroke="#888" stroke-width="0.8"/>
  <!-- Punta sensora -->
  <path d="M192,246 L192,260 Q192,270 200,270 Q208,270 208,260 L208,246" fill="#777" stroke="#666" stroke-width="1"/>
  <!-- Ícono de temperatura -->
  <circle cx="200" cy="320" r="15" fill="none" stroke="#e57373" stroke-width="2"/>
  <rect x="197" y="295" width="6" height="20" rx="3" fill="none" stroke="#e57373" stroke-width="2"/>
  <line x1="210" y1="300" x2="215" y2="298" stroke="#e57373" stroke-width="1.5"/>
  <line x1="210" y1="307" x2="215" y2="305" stroke="#e57373" stroke-width="1.5"/>
</svg>
